<mxfile host="app.diagrams.net" modified="2024-01-14T09:53:06.264Z" agent="Mozilla/5.0 (Windows NT 10.0; Win64; x64) AppleWebKit/537.36 (KHTML, like Gecko) Chrome/120.0.0.0 Safari/537.36" etag="rIRs-yBpuda8X_sOg7Zw" version="22.1.18" type="device" pages="6">
  <diagram name="메인화면" id="o7VIeF1uwhqz3UxBuZCB">
    <mxGraphModel dx="1304" dy="709" grid="1" gridSize="10" guides="1" tooltips="1" connect="1" arrows="1" fold="1" page="1" pageScale="1" pageWidth="1920" pageHeight="1200" math="0" shadow="0">
      <root>
        <mxCell id="0" />
        <mxCell id="1" parent="0" />
        <mxCell id="cAe1_HJ-wGS2Fa1NA8Pz-26" style="edgeStyle=orthogonalEdgeStyle;rounded=0;orthogonalLoop=1;jettySize=auto;html=1;exitX=0.5;exitY=1;exitDx=0;exitDy=0;" edge="1" parent="1" source="cAe1_HJ-wGS2Fa1NA8Pz-1" target="cAe1_HJ-wGS2Fa1NA8Pz-24">
          <mxGeometry relative="1" as="geometry" />
        </mxCell>
        <mxCell id="cAe1_HJ-wGS2Fa1NA8Pz-1" value="시작" style="rounded=1;whiteSpace=wrap;html=1;" vertex="1" parent="1">
          <mxGeometry x="100" y="60" width="80" height="40" as="geometry" />
        </mxCell>
        <mxCell id="cAe1_HJ-wGS2Fa1NA8Pz-6" style="edgeStyle=orthogonalEdgeStyle;rounded=0;orthogonalLoop=1;jettySize=auto;html=1;entryX=0.5;entryY=0;entryDx=0;entryDy=0;" edge="1" parent="1" source="cAe1_HJ-wGS2Fa1NA8Pz-3" target="cAe1_HJ-wGS2Fa1NA8Pz-5">
          <mxGeometry relative="1" as="geometry" />
        </mxCell>
        <mxCell id="cAe1_HJ-wGS2Fa1NA8Pz-10" style="edgeStyle=orthogonalEdgeStyle;rounded=0;orthogonalLoop=1;jettySize=auto;html=1;exitX=0;exitY=0.5;exitDx=0;exitDy=0;entryX=1;entryY=0.5;entryDx=0;entryDy=0;" edge="1" parent="1" source="cAe1_HJ-wGS2Fa1NA8Pz-3" target="cAe1_HJ-wGS2Fa1NA8Pz-8">
          <mxGeometry relative="1" as="geometry" />
        </mxCell>
        <mxCell id="cAe1_HJ-wGS2Fa1NA8Pz-11" style="edgeStyle=orthogonalEdgeStyle;rounded=0;orthogonalLoop=1;jettySize=auto;html=1;exitX=0.5;exitY=1;exitDx=0;exitDy=0;" edge="1" parent="1" source="cAe1_HJ-wGS2Fa1NA8Pz-3" target="cAe1_HJ-wGS2Fa1NA8Pz-7">
          <mxGeometry relative="1" as="geometry">
            <Array as="points">
              <mxPoint x="140" y="250" />
              <mxPoint x="240" y="250" />
            </Array>
          </mxGeometry>
        </mxCell>
        <mxCell id="cAe1_HJ-wGS2Fa1NA8Pz-13" style="edgeStyle=orthogonalEdgeStyle;rounded=0;orthogonalLoop=1;jettySize=auto;html=1;exitX=0.5;exitY=1;exitDx=0;exitDy=0;" edge="1" parent="1" source="cAe1_HJ-wGS2Fa1NA8Pz-3" target="cAe1_HJ-wGS2Fa1NA8Pz-12">
          <mxGeometry relative="1" as="geometry">
            <Array as="points">
              <mxPoint x="140" y="250" />
              <mxPoint x="340" y="250" />
            </Array>
          </mxGeometry>
        </mxCell>
        <mxCell id="cAe1_HJ-wGS2Fa1NA8Pz-3" value="메인 화면" style="rounded=0;whiteSpace=wrap;html=1;" vertex="1" parent="1">
          <mxGeometry x="100" y="200" width="80" height="40" as="geometry" />
        </mxCell>
        <mxCell id="cAe1_HJ-wGS2Fa1NA8Pz-21" style="edgeStyle=orthogonalEdgeStyle;rounded=0;orthogonalLoop=1;jettySize=auto;html=1;exitX=0.5;exitY=1;exitDx=0;exitDy=0;" edge="1" parent="1" source="cAe1_HJ-wGS2Fa1NA8Pz-5" target="cAe1_HJ-wGS2Fa1NA8Pz-34">
          <mxGeometry relative="1" as="geometry">
            <mxPoint x="140.0344827586207" y="340" as="targetPoint" />
          </mxGeometry>
        </mxCell>
        <mxCell id="cAe1_HJ-wGS2Fa1NA8Pz-5" value="새로 하기" style="rounded=0;whiteSpace=wrap;html=1;" vertex="1" parent="1">
          <mxGeometry x="100" y="270" width="80" height="40" as="geometry" />
        </mxCell>
        <mxCell id="cAe1_HJ-wGS2Fa1NA8Pz-18" style="edgeStyle=orthogonalEdgeStyle;rounded=0;orthogonalLoop=1;jettySize=auto;html=1;exitX=0.5;exitY=1;exitDx=0;exitDy=0;entryX=0.5;entryY=0;entryDx=0;entryDy=0;" edge="1" parent="1" source="cAe1_HJ-wGS2Fa1NA8Pz-7" target="cAe1_HJ-wGS2Fa1NA8Pz-17">
          <mxGeometry relative="1" as="geometry" />
        </mxCell>
        <mxCell id="cAe1_HJ-wGS2Fa1NA8Pz-7" value="이어 하기" style="rounded=0;whiteSpace=wrap;html=1;" vertex="1" parent="1">
          <mxGeometry x="205" y="270" width="80" height="40" as="geometry" />
        </mxCell>
        <mxCell id="cAe1_HJ-wGS2Fa1NA8Pz-23" style="edgeStyle=orthogonalEdgeStyle;rounded=0;orthogonalLoop=1;jettySize=auto;html=1;exitX=0.5;exitY=1;exitDx=0;exitDy=0;" edge="1" parent="1" source="cAe1_HJ-wGS2Fa1NA8Pz-8" target="cAe1_HJ-wGS2Fa1NA8Pz-22">
          <mxGeometry relative="1" as="geometry" />
        </mxCell>
        <mxCell id="cAe1_HJ-wGS2Fa1NA8Pz-8" value="[설정]&lt;br&gt;버튼 클릭" style="rounded=0;whiteSpace=wrap;html=1;" vertex="1" parent="1">
          <mxGeometry y="200" width="80" height="40" as="geometry" />
        </mxCell>
        <mxCell id="cAe1_HJ-wGS2Fa1NA8Pz-15" style="edgeStyle=orthogonalEdgeStyle;rounded=0;orthogonalLoop=1;jettySize=auto;html=1;entryX=0.5;entryY=1;entryDx=0;entryDy=0;" edge="1" parent="1" source="cAe1_HJ-wGS2Fa1NA8Pz-12" target="cAe1_HJ-wGS2Fa1NA8Pz-14">
          <mxGeometry relative="1" as="geometry">
            <mxPoint x="350" y="250" as="targetPoint" />
            <Array as="points">
              <mxPoint x="390" y="290" />
              <mxPoint x="390" y="220" />
              <mxPoint x="340" y="220" />
            </Array>
          </mxGeometry>
        </mxCell>
        <mxCell id="cAe1_HJ-wGS2Fa1NA8Pz-12" value="게임 종료" style="rounded=0;whiteSpace=wrap;html=1;" vertex="1" parent="1">
          <mxGeometry x="300" y="270" width="80" height="40" as="geometry" />
        </mxCell>
        <mxCell id="cAe1_HJ-wGS2Fa1NA8Pz-14" value="App종료" style="rounded=1;whiteSpace=wrap;html=1;" vertex="1" parent="1">
          <mxGeometry x="295" y="130" width="90" height="40" as="geometry" />
        </mxCell>
        <mxCell id="cAe1_HJ-wGS2Fa1NA8Pz-16" value="마지막으로 저장된 씬 불러오기" style="rounded=1;whiteSpace=wrap;html=1;" vertex="1" parent="1">
          <mxGeometry x="200" y="480" width="90" height="40" as="geometry" />
        </mxCell>
        <mxCell id="cAe1_HJ-wGS2Fa1NA8Pz-19" value="NO" style="edgeStyle=orthogonalEdgeStyle;rounded=0;orthogonalLoop=1;jettySize=auto;html=1;exitX=0.5;exitY=1;exitDx=0;exitDy=0;exitPerimeter=0;strokeColor=#CC0000;" edge="1" parent="1" source="cAe1_HJ-wGS2Fa1NA8Pz-17" target="cAe1_HJ-wGS2Fa1NA8Pz-36">
          <mxGeometry relative="1" as="geometry" />
        </mxCell>
        <mxCell id="cAe1_HJ-wGS2Fa1NA8Pz-27" style="edgeStyle=orthogonalEdgeStyle;rounded=0;orthogonalLoop=1;jettySize=auto;html=1;exitX=0;exitY=0.5;exitDx=0;exitDy=0;entryX=0.508;entryY=0.029;entryDx=0;entryDy=0;entryPerimeter=0;" edge="1" parent="1" source="cAe1_HJ-wGS2Fa1NA8Pz-17" target="cAe1_HJ-wGS2Fa1NA8Pz-5">
          <mxGeometry relative="1" as="geometry">
            <Array as="points">
              <mxPoint x="190" y="360" />
              <mxPoint x="190" y="250" />
              <mxPoint x="141" y="250" />
            </Array>
          </mxGeometry>
        </mxCell>
        <mxCell id="cAe1_HJ-wGS2Fa1NA8Pz-28" value="yes" style="edgeLabel;html=1;align=center;verticalAlign=middle;resizable=0;points=[];" vertex="1" connectable="0" parent="cAe1_HJ-wGS2Fa1NA8Pz-27">
          <mxGeometry x="-0.326" relative="1" as="geometry">
            <mxPoint as="offset" />
          </mxGeometry>
        </mxCell>
        <mxCell id="cAe1_HJ-wGS2Fa1NA8Pz-17" value="저장된&lt;br&gt;파일이&lt;br&gt;&amp;nbsp;없으면?" style="rhombus;whiteSpace=wrap;html=1;" vertex="1" parent="1">
          <mxGeometry x="195" y="330" width="100" height="60" as="geometry" />
        </mxCell>
        <mxCell id="cAe1_HJ-wGS2Fa1NA8Pz-33" style="edgeStyle=orthogonalEdgeStyle;rounded=0;orthogonalLoop=1;jettySize=auto;html=1;exitX=0.5;exitY=1;exitDx=0;exitDy=0;" edge="1" parent="1" source="cAe1_HJ-wGS2Fa1NA8Pz-20" target="cAe1_HJ-wGS2Fa1NA8Pz-32">
          <mxGeometry relative="1" as="geometry" />
        </mxCell>
        <mxCell id="cAe1_HJ-wGS2Fa1NA8Pz-20" value="월드 생성 &lt;br&gt;씬 불러오기" style="rounded=1;whiteSpace=wrap;html=1;" vertex="1" parent="1">
          <mxGeometry x="95" y="410" width="90" height="40" as="geometry" />
        </mxCell>
        <mxCell id="cAe1_HJ-wGS2Fa1NA8Pz-22" value="설정" style="ellipse;whiteSpace=wrap;html=1;" vertex="1" parent="1">
          <mxGeometry x="10" y="260" width="60" height="60" as="geometry" />
        </mxCell>
        <mxCell id="cAe1_HJ-wGS2Fa1NA8Pz-24" value="설정 값 불러오기" style="rounded=1;whiteSpace=wrap;html=1;" vertex="1" parent="1">
          <mxGeometry x="100" y="130" width="80" height="40" as="geometry" />
        </mxCell>
        <mxCell id="cAe1_HJ-wGS2Fa1NA8Pz-25" style="edgeStyle=orthogonalEdgeStyle;rounded=0;orthogonalLoop=1;jettySize=auto;html=1;exitX=0.5;exitY=1;exitDx=0;exitDy=0;" edge="1" parent="1" source="cAe1_HJ-wGS2Fa1NA8Pz-24" target="cAe1_HJ-wGS2Fa1NA8Pz-3">
          <mxGeometry relative="1" as="geometry">
            <mxPoint x="140" y="201" as="targetPoint" />
            <Array as="points">
              <mxPoint x="140" y="170" />
              <mxPoint x="140" y="170" />
            </Array>
          </mxGeometry>
        </mxCell>
        <mxCell id="cAe1_HJ-wGS2Fa1NA8Pz-31" style="edgeStyle=orthogonalEdgeStyle;rounded=0;orthogonalLoop=1;jettySize=auto;html=1;exitX=0.523;exitY=0.826;exitDx=0;exitDy=0;exitPerimeter=0;" edge="1" parent="1" source="cAe1_HJ-wGS2Fa1NA8Pz-34" target="cAe1_HJ-wGS2Fa1NA8Pz-20">
          <mxGeometry relative="1" as="geometry">
            <mxPoint x="140" y="380" as="sourcePoint" />
            <Array as="points">
              <mxPoint x="140" y="373" />
            </Array>
          </mxGeometry>
        </mxCell>
        <mxCell id="Gnc5K_j_M5pKnhv9eOQv-2" style="edgeStyle=orthogonalEdgeStyle;rounded=0;orthogonalLoop=1;jettySize=auto;html=1;" edge="1" parent="1" source="cAe1_HJ-wGS2Fa1NA8Pz-32" target="Gnc5K_j_M5pKnhv9eOQv-1">
          <mxGeometry relative="1" as="geometry" />
        </mxCell>
        <mxCell id="cAe1_HJ-wGS2Fa1NA8Pz-32" value="튜토리얼&lt;br&gt;&amp;nbsp;맵 생성" style="rounded=0;whiteSpace=wrap;html=1;" vertex="1" parent="1">
          <mxGeometry x="100" y="480" width="80" height="40" as="geometry" />
        </mxCell>
        <mxCell id="cAe1_HJ-wGS2Fa1NA8Pz-34" value="난이도 설정 창" style="shape=document;whiteSpace=wrap;html=1;boundedLbl=1;" vertex="1" parent="1">
          <mxGeometry x="95" y="340" width="90" height="40" as="geometry" />
        </mxCell>
        <mxCell id="cAe1_HJ-wGS2Fa1NA8Pz-37" style="edgeStyle=orthogonalEdgeStyle;rounded=0;orthogonalLoop=1;jettySize=auto;html=1;exitX=0.5;exitY=0.834;exitDx=0;exitDy=0;exitPerimeter=0;" edge="1" parent="1" source="cAe1_HJ-wGS2Fa1NA8Pz-36" target="cAe1_HJ-wGS2Fa1NA8Pz-16">
          <mxGeometry relative="1" as="geometry" />
        </mxCell>
        <mxCell id="cAe1_HJ-wGS2Fa1NA8Pz-36" value="세이브 파일&lt;br&gt;&amp;nbsp;선택 창" style="shape=document;whiteSpace=wrap;html=1;boundedLbl=1;" vertex="1" parent="1">
          <mxGeometry x="200" y="410" width="90" height="40" as="geometry" />
        </mxCell>
        <mxCell id="Gnc5K_j_M5pKnhv9eOQv-1" value="던전 씬으로" style="rounded=1;whiteSpace=wrap;html=1;" vertex="1" parent="1">
          <mxGeometry x="95" y="545" width="90" height="40" as="geometry" />
        </mxCell>
        <mxCell id="PoiuBlNY98dqjE792VmL-12" value="" style="edgeStyle=orthogonalEdgeStyle;rounded=0;orthogonalLoop=1;jettySize=auto;html=1;" edge="1" parent="1" source="PoiuBlNY98dqjE792VmL-4" target="PoiuBlNY98dqjE792VmL-11">
          <mxGeometry relative="1" as="geometry">
            <Array as="points">
              <mxPoint x="570" y="240" />
              <mxPoint x="460" y="240" />
            </Array>
          </mxGeometry>
        </mxCell>
        <mxCell id="PoiuBlNY98dqjE792VmL-14" style="edgeStyle=orthogonalEdgeStyle;rounded=0;orthogonalLoop=1;jettySize=auto;html=1;exitX=0.5;exitY=1;exitDx=0;exitDy=0;" edge="1" parent="1" source="PoiuBlNY98dqjE792VmL-4" target="PoiuBlNY98dqjE792VmL-13">
          <mxGeometry relative="1" as="geometry" />
        </mxCell>
        <mxCell id="PoiuBlNY98dqjE792VmL-17" style="edgeStyle=orthogonalEdgeStyle;rounded=0;orthogonalLoop=1;jettySize=auto;html=1;" edge="1" parent="1" source="PoiuBlNY98dqjE792VmL-4" target="PoiuBlNY98dqjE792VmL-15">
          <mxGeometry relative="1" as="geometry">
            <Array as="points">
              <mxPoint x="570" y="240" />
              <mxPoint x="680" y="240" />
            </Array>
          </mxGeometry>
        </mxCell>
        <mxCell id="PoiuBlNY98dqjE792VmL-18" style="edgeStyle=orthogonalEdgeStyle;rounded=0;orthogonalLoop=1;jettySize=auto;html=1;" edge="1" parent="1" source="PoiuBlNY98dqjE792VmL-4" target="PoiuBlNY98dqjE792VmL-16">
          <mxGeometry relative="1" as="geometry">
            <Array as="points">
              <mxPoint x="570" y="240" />
              <mxPoint x="790" y="240" />
            </Array>
          </mxGeometry>
        </mxCell>
        <mxCell id="PoiuBlNY98dqjE792VmL-20" style="edgeStyle=orthogonalEdgeStyle;rounded=0;orthogonalLoop=1;jettySize=auto;html=1;" edge="1" parent="1" source="PoiuBlNY98dqjE792VmL-4" target="PoiuBlNY98dqjE792VmL-19">
          <mxGeometry relative="1" as="geometry">
            <Array as="points">
              <mxPoint x="570" y="240" />
              <mxPoint x="900" y="240" />
            </Array>
          </mxGeometry>
        </mxCell>
        <mxCell id="PoiuBlNY98dqjE792VmL-22" style="edgeStyle=orthogonalEdgeStyle;rounded=0;orthogonalLoop=1;jettySize=auto;html=1;" edge="1" parent="1" source="PoiuBlNY98dqjE792VmL-4" target="PoiuBlNY98dqjE792VmL-21">
          <mxGeometry relative="1" as="geometry">
            <Array as="points">
              <mxPoint x="570" y="240" />
              <mxPoint x="1010" y="240" />
            </Array>
          </mxGeometry>
        </mxCell>
        <mxCell id="PoiuBlNY98dqjE792VmL-4" value="로비" style="rounded=0;whiteSpace=wrap;html=1;" vertex="1" parent="1">
          <mxGeometry x="530" y="160" width="80" height="40" as="geometry" />
        </mxCell>
        <mxCell id="PoiuBlNY98dqjE792VmL-8" style="edgeStyle=orthogonalEdgeStyle;rounded=0;orthogonalLoop=1;jettySize=auto;html=1;exitX=1;exitY=0.5;exitDx=0;exitDy=0;entryX=0;entryY=0.5;entryDx=0;entryDy=0;" edge="1" parent="1" source="PoiuBlNY98dqjE792VmL-6" target="Zar3HKTUDFYJjWZs-EhG-1">
          <mxGeometry relative="1" as="geometry" />
        </mxCell>
        <mxCell id="PoiuBlNY98dqjE792VmL-6" value="던전&lt;br&gt;탈출" style="ellipse;whiteSpace=wrap;html=1;aspect=fixed;" vertex="1" parent="1">
          <mxGeometry x="437.5" y="45" width="45" height="45" as="geometry" />
        </mxCell>
        <mxCell id="Zar3HKTUDFYJjWZs-EhG-11" style="edgeStyle=orthogonalEdgeStyle;rounded=0;orthogonalLoop=1;jettySize=auto;html=1;exitX=0.5;exitY=1;exitDx=0;exitDy=0;" edge="1" parent="1" source="PoiuBlNY98dqjE792VmL-11" target="Zar3HKTUDFYJjWZs-EhG-10">
          <mxGeometry relative="1" as="geometry" />
        </mxCell>
        <mxCell id="PoiuBlNY98dqjE792VmL-11" value="상점" style="whiteSpace=wrap;html=1;rounded=0;" vertex="1" parent="1">
          <mxGeometry x="420" y="270" width="80" height="40" as="geometry" />
        </mxCell>
        <mxCell id="Zar3HKTUDFYJjWZs-EhG-13" style="edgeStyle=orthogonalEdgeStyle;rounded=0;orthogonalLoop=1;jettySize=auto;html=1;exitX=0.5;exitY=1;exitDx=0;exitDy=0;" edge="1" parent="1" source="PoiuBlNY98dqjE792VmL-13" target="Zar3HKTUDFYJjWZs-EhG-12">
          <mxGeometry relative="1" as="geometry" />
        </mxCell>
        <mxCell id="PoiuBlNY98dqjE792VmL-13" value="던전 선택" style="whiteSpace=wrap;html=1;rounded=0;" vertex="1" parent="1">
          <mxGeometry x="530" y="270" width="80" height="40" as="geometry" />
        </mxCell>
        <mxCell id="Zar3HKTUDFYJjWZs-EhG-21" style="edgeStyle=orthogonalEdgeStyle;rounded=0;orthogonalLoop=1;jettySize=auto;html=1;exitX=0.5;exitY=1;exitDx=0;exitDy=0;" edge="1" parent="1" source="PoiuBlNY98dqjE792VmL-15" target="Zar3HKTUDFYJjWZs-EhG-14">
          <mxGeometry relative="1" as="geometry" />
        </mxCell>
        <mxCell id="PoiuBlNY98dqjE792VmL-15" value="퀘스트" style="whiteSpace=wrap;html=1;rounded=0;" vertex="1" parent="1">
          <mxGeometry x="640" y="270" width="80" height="40" as="geometry" />
        </mxCell>
        <mxCell id="Zar3HKTUDFYJjWZs-EhG-20" style="edgeStyle=orthogonalEdgeStyle;rounded=0;orthogonalLoop=1;jettySize=auto;html=1;exitX=0.5;exitY=1;exitDx=0;exitDy=0;" edge="1" parent="1" source="PoiuBlNY98dqjE792VmL-16" target="Zar3HKTUDFYJjWZs-EhG-15">
          <mxGeometry relative="1" as="geometry" />
        </mxCell>
        <mxCell id="PoiuBlNY98dqjE792VmL-16" value="창고" style="whiteSpace=wrap;html=1;rounded=0;" vertex="1" parent="1">
          <mxGeometry x="750" y="270" width="80" height="40" as="geometry" />
        </mxCell>
        <mxCell id="Zar3HKTUDFYJjWZs-EhG-19" style="edgeStyle=orthogonalEdgeStyle;rounded=0;orthogonalLoop=1;jettySize=auto;html=1;exitX=0.5;exitY=1;exitDx=0;exitDy=0;" edge="1" parent="1" source="PoiuBlNY98dqjE792VmL-19" target="Zar3HKTUDFYJjWZs-EhG-16">
          <mxGeometry relative="1" as="geometry" />
        </mxCell>
        <mxCell id="PoiuBlNY98dqjE792VmL-19" value="캐릭터 관리" style="whiteSpace=wrap;html=1;rounded=0;" vertex="1" parent="1">
          <mxGeometry x="860" y="270" width="80" height="40" as="geometry" />
        </mxCell>
        <mxCell id="Zar3HKTUDFYJjWZs-EhG-18" style="edgeStyle=orthogonalEdgeStyle;rounded=0;orthogonalLoop=1;jettySize=auto;html=1;exitX=0.5;exitY=1;exitDx=0;exitDy=0;" edge="1" parent="1" source="PoiuBlNY98dqjE792VmL-21" target="Zar3HKTUDFYJjWZs-EhG-17">
          <mxGeometry relative="1" as="geometry" />
        </mxCell>
        <mxCell id="PoiuBlNY98dqjE792VmL-21" value="건물 설정" style="whiteSpace=wrap;html=1;rounded=0;" vertex="1" parent="1">
          <mxGeometry x="970" y="270" width="80" height="40" as="geometry" />
        </mxCell>
        <mxCell id="Zar3HKTUDFYJjWZs-EhG-3" style="edgeStyle=orthogonalEdgeStyle;rounded=0;orthogonalLoop=1;jettySize=auto;html=1;exitX=1;exitY=0.5;exitDx=0;exitDy=0;entryX=0;entryY=0.5;entryDx=0;entryDy=0;" edge="1" parent="1" source="Zar3HKTUDFYJjWZs-EhG-1" target="Zar3HKTUDFYJjWZs-EhG-4">
          <mxGeometry relative="1" as="geometry">
            <mxPoint x="640" y="67.33333333333337" as="targetPoint" />
          </mxGeometry>
        </mxCell>
        <mxCell id="Zar3HKTUDFYJjWZs-EhG-1" value="마을 로딩" style="rounded=1;whiteSpace=wrap;html=1;" vertex="1" parent="1">
          <mxGeometry x="530" y="47.5" width="80" height="40" as="geometry" />
        </mxCell>
        <mxCell id="Zar3HKTUDFYJjWZs-EhG-5" style="edgeStyle=orthogonalEdgeStyle;rounded=0;orthogonalLoop=1;jettySize=auto;html=1;exitX=1;exitY=0.5;exitDx=0;exitDy=0;" edge="1" parent="1" source="Zar3HKTUDFYJjWZs-EhG-4" target="Zar3HKTUDFYJjWZs-EhG-6">
          <mxGeometry relative="1" as="geometry">
            <mxPoint x="750" y="67.33333333333337" as="targetPoint" />
          </mxGeometry>
        </mxCell>
        <mxCell id="Zar3HKTUDFYJjWZs-EhG-4" value="창고 아이템 불러오기" style="rounded=1;whiteSpace=wrap;html=1;" vertex="1" parent="1">
          <mxGeometry x="640" y="47.5" width="80" height="40" as="geometry" />
        </mxCell>
        <mxCell id="Zar3HKTUDFYJjWZs-EhG-7" style="edgeStyle=orthogonalEdgeStyle;rounded=0;orthogonalLoop=1;jettySize=auto;html=1;exitX=1;exitY=0.5;exitDx=0;exitDy=0;entryX=0;entryY=0.5;entryDx=0;entryDy=0;" edge="1" parent="1" source="Zar3HKTUDFYJjWZs-EhG-6" target="Zar3HKTUDFYJjWZs-EhG-8">
          <mxGeometry relative="1" as="geometry">
            <mxPoint x="860" y="67.33333333333337" as="targetPoint" />
            <Array as="points">
              <mxPoint x="845" y="67" />
              <mxPoint x="850" y="68" />
            </Array>
          </mxGeometry>
        </mxCell>
        <mxCell id="Zar3HKTUDFYJjWZs-EhG-6" value="보유한 캐릭터 불러오기" style="whiteSpace=wrap;html=1;rounded=0;" vertex="1" parent="1">
          <mxGeometry x="750" y="47.5" width="80" height="40" as="geometry" />
        </mxCell>
        <mxCell id="Zar3HKTUDFYJjWZs-EhG-9" style="edgeStyle=orthogonalEdgeStyle;rounded=0;orthogonalLoop=1;jettySize=auto;html=1;exitX=1;exitY=0.5;exitDx=0;exitDy=0;" edge="1" parent="1" source="Zar3HKTUDFYJjWZs-EhG-8" target="PoiuBlNY98dqjE792VmL-4">
          <mxGeometry relative="1" as="geometry">
            <mxPoint x="960" y="67.55555555555554" as="targetPoint" />
          </mxGeometry>
        </mxCell>
        <mxCell id="Zar3HKTUDFYJjWZs-EhG-8" value="날짜 변경 &lt;br&gt;이벤트 호출" style="whiteSpace=wrap;html=1;rounded=0;" vertex="1" parent="1">
          <mxGeometry x="860" y="47.5" width="80" height="40" as="geometry" />
        </mxCell>
        <mxCell id="Zar3HKTUDFYJjWZs-EhG-10" value="상점 창" style="shape=document;whiteSpace=wrap;html=1;boundedLbl=1;" vertex="1" parent="1">
          <mxGeometry x="420" y="350" width="80" height="40" as="geometry" />
        </mxCell>
        <mxCell id="Zar3HKTUDFYJjWZs-EhG-12" value="던전 선택창" style="shape=document;whiteSpace=wrap;html=1;boundedLbl=1;" vertex="1" parent="1">
          <mxGeometry x="530" y="350" width="80" height="40" as="geometry" />
        </mxCell>
        <mxCell id="Zar3HKTUDFYJjWZs-EhG-14" value="퀘스트 선택창" style="shape=document;whiteSpace=wrap;html=1;boundedLbl=1;" vertex="1" parent="1">
          <mxGeometry x="640" y="350" width="80" height="40" as="geometry" />
        </mxCell>
        <mxCell id="Zar3HKTUDFYJjWZs-EhG-15" value="창고와 &lt;br&gt;인벤토리" style="shape=document;whiteSpace=wrap;html=1;boundedLbl=1;" vertex="1" parent="1">
          <mxGeometry x="750" y="350" width="80" height="40" as="geometry" />
        </mxCell>
        <mxCell id="Zar3HKTUDFYJjWZs-EhG-16" value="캐릭터 관리 창" style="shape=document;whiteSpace=wrap;html=1;boundedLbl=1;" vertex="1" parent="1">
          <mxGeometry x="860" y="350" width="80" height="40" as="geometry" />
        </mxCell>
        <mxCell id="Zar3HKTUDFYJjWZs-EhG-17" value="건물 설정창" style="shape=document;whiteSpace=wrap;html=1;boundedLbl=1;" vertex="1" parent="1">
          <mxGeometry x="970" y="350" width="80" height="40" as="geometry" />
        </mxCell>
        <mxCell id="zOwtHW7Vdrrn2NxZGbct-2" style="edgeStyle=orthogonalEdgeStyle;rounded=0;orthogonalLoop=1;jettySize=auto;html=1;exitX=1;exitY=0.5;exitDx=0;exitDy=0;entryX=0;entryY=0.5;entryDx=0;entryDy=0;" edge="1" parent="1" source="zOwtHW7Vdrrn2NxZGbct-1" target="zOwtHW7Vdrrn2NxZGbct-4">
          <mxGeometry relative="1" as="geometry">
            <mxPoint x="310" y="565" as="targetPoint" />
          </mxGeometry>
        </mxCell>
        <mxCell id="zOwtHW7Vdrrn2NxZGbct-1" value="던전&lt;br&gt;진입" style="ellipse;whiteSpace=wrap;html=1;aspect=fixed;" vertex="1" parent="1">
          <mxGeometry x="222.5" y="542.5" width="45" height="45" as="geometry" />
        </mxCell>
        <mxCell id="zOwtHW7Vdrrn2NxZGbct-5" style="edgeStyle=orthogonalEdgeStyle;rounded=0;orthogonalLoop=1;jettySize=auto;html=1;exitX=1;exitY=0.5;exitDx=0;exitDy=0;" edge="1" parent="1" source="zOwtHW7Vdrrn2NxZGbct-4" target="zOwtHW7Vdrrn2NxZGbct-6">
          <mxGeometry relative="1" as="geometry">
            <mxPoint x="410" y="564.8" as="targetPoint" />
            <Array as="points">
              <mxPoint x="380" y="565" />
              <mxPoint x="380" y="430" />
            </Array>
          </mxGeometry>
        </mxCell>
        <mxCell id="zOwtHW7Vdrrn2NxZGbct-4" value="맵 &lt;br&gt;생성" style="ellipse;whiteSpace=wrap;html=1;aspect=fixed;" vertex="1" parent="1">
          <mxGeometry x="310" y="542.5" width="45" height="45" as="geometry" />
        </mxCell>
        <mxCell id="MFPQgtImu9WQHpaKNbK6-3" style="edgeStyle=orthogonalEdgeStyle;rounded=0;orthogonalLoop=1;jettySize=auto;html=1;exitX=0.5;exitY=1;exitDx=0;exitDy=0;" edge="1" parent="1" source="zOwtHW7Vdrrn2NxZGbct-6" target="MFPQgtImu9WQHpaKNbK6-4">
          <mxGeometry relative="1" as="geometry">
            <mxPoint x="460.20000000000005" y="490" as="targetPoint" />
          </mxGeometry>
        </mxCell>
        <mxCell id="zOwtHW7Vdrrn2NxZGbct-6" value="던전 플레이" style="rounded=1;whiteSpace=wrap;html=1;" vertex="1" parent="1">
          <mxGeometry x="420" y="410" width="80" height="40" as="geometry" />
        </mxCell>
        <mxCell id="MFPQgtImu9WQHpaKNbK6-2" value="던전&lt;br&gt;탈출" style="ellipse;whiteSpace=wrap;html=1;aspect=fixed;" vertex="1" parent="1">
          <mxGeometry x="780" y="542.5" width="45" height="45" as="geometry" />
        </mxCell>
        <mxCell id="MFPQgtImu9WQHpaKNbK6-6" style="edgeStyle=orthogonalEdgeStyle;rounded=0;orthogonalLoop=1;jettySize=auto;html=1;" edge="1" parent="1" source="MFPQgtImu9WQHpaKNbK6-4" target="MFPQgtImu9WQHpaKNbK6-20">
          <mxGeometry relative="1" as="geometry">
            <Array as="points" />
          </mxGeometry>
        </mxCell>
        <mxCell id="MFPQgtImu9WQHpaKNbK6-14" style="edgeStyle=orthogonalEdgeStyle;rounded=0;orthogonalLoop=1;jettySize=auto;html=1;exitX=0.5;exitY=1;exitDx=0;exitDy=0;" edge="1" parent="1" source="MFPQgtImu9WQHpaKNbK6-4" target="MFPQgtImu9WQHpaKNbK6-12">
          <mxGeometry relative="1" as="geometry" />
        </mxCell>
        <mxCell id="MFPQgtImu9WQHpaKNbK6-4" value="중계기 설치" style="rounded=1;whiteSpace=wrap;html=1;" vertex="1" parent="1">
          <mxGeometry x="540" y="410" width="80" height="40" as="geometry" />
        </mxCell>
        <mxCell id="MFPQgtImu9WQHpaKNbK6-7" style="edgeStyle=orthogonalEdgeStyle;rounded=0;orthogonalLoop=1;jettySize=auto;html=1;exitX=0.5;exitY=1;exitDx=0;exitDy=0;entryX=0.5;entryY=0;entryDx=0;entryDy=0;" edge="1" parent="1" source="MFPQgtImu9WQHpaKNbK6-5" target="MFPQgtImu9WQHpaKNbK6-8">
          <mxGeometry relative="1" as="geometry">
            <mxPoint x="615.2222222222222" y="500" as="targetPoint" />
          </mxGeometry>
        </mxCell>
        <mxCell id="MFPQgtImu9WQHpaKNbK6-5" value="다음 층 계단 까지 중계기 이어주기" style="rounded=1;whiteSpace=wrap;html=1;" vertex="1" parent="1">
          <mxGeometry x="850" y="410" width="150" height="40" as="geometry" />
        </mxCell>
        <mxCell id="MFPQgtImu9WQHpaKNbK6-10" style="edgeStyle=orthogonalEdgeStyle;rounded=0;orthogonalLoop=1;jettySize=auto;html=1;exitX=0.5;exitY=1;exitDx=0;exitDy=0;" edge="1" parent="1" source="MFPQgtImu9WQHpaKNbK6-8" target="MFPQgtImu9WQHpaKNbK6-9">
          <mxGeometry relative="1" as="geometry" />
        </mxCell>
        <mxCell id="MFPQgtImu9WQHpaKNbK6-8" value="계단 개방 다음 층으로 이동" style="rounded=1;whiteSpace=wrap;html=1;" vertex="1" parent="1">
          <mxGeometry x="850" y="480" width="150" height="40" as="geometry" />
        </mxCell>
        <mxCell id="MFPQgtImu9WQHpaKNbK6-9" value="다음층 씬으로 이동" style="rounded=1;whiteSpace=wrap;html=1;" vertex="1" parent="1">
          <mxGeometry x="850" y="547.5" width="150" height="40" as="geometry" />
        </mxCell>
        <mxCell id="MFPQgtImu9WQHpaKNbK6-17" value="" style="edgeStyle=orthogonalEdgeStyle;rounded=0;orthogonalLoop=1;jettySize=auto;html=1;exitX=0.5;exitY=1;exitDx=0;exitDy=0;" edge="1" parent="1" source="MFPQgtImu9WQHpaKNbK6-12" target="MFPQgtImu9WQHpaKNbK6-16">
          <mxGeometry relative="1" as="geometry">
            <Array as="points">
              <mxPoint x="580" y="560" />
            </Array>
          </mxGeometry>
        </mxCell>
        <mxCell id="MFPQgtImu9WQHpaKNbK6-18" value="yes" style="edgeLabel;html=1;align=center;verticalAlign=middle;resizable=0;points=[];" vertex="1" connectable="0" parent="MFPQgtImu9WQHpaKNbK6-17">
          <mxGeometry x="-0.1252" y="-1" relative="1" as="geometry">
            <mxPoint x="-2" as="offset" />
          </mxGeometry>
        </mxCell>
        <mxCell id="MFPQgtImu9WQHpaKNbK6-19" style="edgeStyle=orthogonalEdgeStyle;rounded=0;orthogonalLoop=1;jettySize=auto;html=1;exitX=0;exitY=0.5;exitDx=0;exitDy=0;entryX=0;entryY=0.5;entryDx=0;entryDy=0;" edge="1" parent="1" source="MFPQgtImu9WQHpaKNbK6-12" target="MFPQgtImu9WQHpaKNbK6-4">
          <mxGeometry relative="1" as="geometry">
            <Array as="points">
              <mxPoint x="520" y="508" />
              <mxPoint x="520" y="430" />
            </Array>
          </mxGeometry>
        </mxCell>
        <mxCell id="MFPQgtImu9WQHpaKNbK6-12" value="만약&lt;br&gt;&amp;nbsp;중계기가&lt;br&gt;부족하면?" style="rhombus;whiteSpace=wrap;html=1;" vertex="1" parent="1">
          <mxGeometry x="530" y="470" width="100" height="75" as="geometry" />
        </mxCell>
        <mxCell id="MFPQgtImu9WQHpaKNbK6-16" value="설치 실패" style="whiteSpace=wrap;html=1;" vertex="1" parent="1">
          <mxGeometry x="437.5" y="542.5" width="70" height="37.5" as="geometry" />
        </mxCell>
        <mxCell id="MFPQgtImu9WQHpaKNbK6-23" style="edgeStyle=orthogonalEdgeStyle;rounded=0;orthogonalLoop=1;jettySize=auto;html=1;exitX=1;exitY=0.5;exitDx=0;exitDy=0;" edge="1" parent="1" source="MFPQgtImu9WQHpaKNbK6-20" target="MFPQgtImu9WQHpaKNbK6-5">
          <mxGeometry relative="1" as="geometry" />
        </mxCell>
        <mxCell id="MFPQgtImu9WQHpaKNbK6-26" style="edgeStyle=orthogonalEdgeStyle;rounded=0;orthogonalLoop=1;jettySize=auto;html=1;exitX=0.5;exitY=1;exitDx=0;exitDy=0;" edge="1" parent="1" source="MFPQgtImu9WQHpaKNbK6-20" target="MFPQgtImu9WQHpaKNbK6-24">
          <mxGeometry relative="1" as="geometry" />
        </mxCell>
        <mxCell id="MFPQgtImu9WQHpaKNbK6-20" value="마지막 층인가?" style="rhombus;whiteSpace=wrap;html=1;" vertex="1" parent="1">
          <mxGeometry x="660" y="392.5" width="100" height="75" as="geometry" />
        </mxCell>
        <mxCell id="MFPQgtImu9WQHpaKNbK6-28" style="edgeStyle=orthogonalEdgeStyle;rounded=0;orthogonalLoop=1;jettySize=auto;html=1;exitX=0.5;exitY=1;exitDx=0;exitDy=0;" edge="1" parent="1" source="MFPQgtImu9WQHpaKNbK6-24" target="MFPQgtImu9WQHpaKNbK6-27">
          <mxGeometry relative="1" as="geometry" />
        </mxCell>
        <mxCell id="MFPQgtImu9WQHpaKNbK6-24" value="목표 완수" style="rounded=1;whiteSpace=wrap;html=1;" vertex="1" parent="1">
          <mxGeometry x="670" y="487.5" width="80" height="40" as="geometry" />
        </mxCell>
        <mxCell id="MFPQgtImu9WQHpaKNbK6-29" style="edgeStyle=orthogonalEdgeStyle;rounded=0;orthogonalLoop=1;jettySize=auto;html=1;" edge="1" parent="1" source="MFPQgtImu9WQHpaKNbK6-27" target="MFPQgtImu9WQHpaKNbK6-2">
          <mxGeometry relative="1" as="geometry" />
        </mxCell>
        <mxCell id="MFPQgtImu9WQHpaKNbK6-27" value="정산" style="rounded=1;whiteSpace=wrap;html=1;" vertex="1" parent="1">
          <mxGeometry x="670" y="545" width="80" height="40" as="geometry" />
        </mxCell>
      </root>
    </mxGraphModel>
  </diagram>
  <diagram id="-E4IHmwYKQO90VR0brR8" name="설정">
    <mxGraphModel dx="1434" dy="780" grid="1" gridSize="10" guides="1" tooltips="1" connect="1" arrows="1" fold="1" page="1" pageScale="1" pageWidth="827" pageHeight="1169" math="0" shadow="0">
      <root>
        <mxCell id="0" />
        <mxCell id="1" parent="0" />
        <mxCell id="TUetWs9dm9FfKpNJwt7f-30" style="edgeStyle=orthogonalEdgeStyle;rounded=0;orthogonalLoop=1;jettySize=auto;html=1;exitX=0;exitY=0.5;exitDx=0;exitDy=0;entryX=0.5;entryY=0;entryDx=0;entryDy=0;" edge="1" parent="1" source="TUetWs9dm9FfKpNJwt7f-22" target="TUetWs9dm9FfKpNJwt7f-28">
          <mxGeometry relative="1" as="geometry">
            <Array as="points">
              <mxPoint x="80" y="590" />
              <mxPoint x="80" y="660" />
              <mxPoint x="390" y="660" />
            </Array>
          </mxGeometry>
        </mxCell>
        <mxCell id="TUetWs9dm9FfKpNJwt7f-22" value="" style="rounded=0;whiteSpace=wrap;html=1;" vertex="1" parent="1">
          <mxGeometry x="89.97" y="540" width="140" height="100" as="geometry" />
        </mxCell>
        <mxCell id="TUetWs9dm9FfKpNJwt7f-8" style="edgeStyle=orthogonalEdgeStyle;rounded=0;orthogonalLoop=1;jettySize=auto;html=1;entryX=0.5;entryY=0;entryDx=0;entryDy=0;" edge="1" parent="1" source="TUetWs9dm9FfKpNJwt7f-1" target="TUetWs9dm9FfKpNJwt7f-5">
          <mxGeometry relative="1" as="geometry">
            <Array as="points">
              <mxPoint x="400" y="270" />
              <mxPoint x="160" y="270" />
            </Array>
          </mxGeometry>
        </mxCell>
        <mxCell id="TUetWs9dm9FfKpNJwt7f-9" style="edgeStyle=orthogonalEdgeStyle;rounded=0;orthogonalLoop=1;jettySize=auto;html=1;entryX=0.5;entryY=0;entryDx=0;entryDy=0;" edge="1" parent="1" source="TUetWs9dm9FfKpNJwt7f-1" target="TUetWs9dm9FfKpNJwt7f-4">
          <mxGeometry relative="1" as="geometry" />
        </mxCell>
        <mxCell id="TUetWs9dm9FfKpNJwt7f-10" style="edgeStyle=orthogonalEdgeStyle;rounded=0;orthogonalLoop=1;jettySize=auto;html=1;" edge="1" parent="1" source="TUetWs9dm9FfKpNJwt7f-1" target="TUetWs9dm9FfKpNJwt7f-6">
          <mxGeometry relative="1" as="geometry" />
        </mxCell>
        <mxCell id="TUetWs9dm9FfKpNJwt7f-11" style="edgeStyle=orthogonalEdgeStyle;rounded=0;orthogonalLoop=1;jettySize=auto;html=1;" edge="1" parent="1" source="TUetWs9dm9FfKpNJwt7f-1" target="TUetWs9dm9FfKpNJwt7f-7">
          <mxGeometry relative="1" as="geometry">
            <Array as="points">
              <mxPoint x="400" y="270" />
              <mxPoint x="620" y="270" />
            </Array>
          </mxGeometry>
        </mxCell>
        <mxCell id="wKwD7mUX65wehN2HWuOq-21" style="edgeStyle=orthogonalEdgeStyle;rounded=0;orthogonalLoop=1;jettySize=auto;html=1;exitX=1;exitY=0.5;exitDx=0;exitDy=0;" edge="1" parent="1" source="TUetWs9dm9FfKpNJwt7f-1" target="wKwD7mUX65wehN2HWuOq-20">
          <mxGeometry relative="1" as="geometry" />
        </mxCell>
        <mxCell id="TUetWs9dm9FfKpNJwt7f-1" value="설정 창" style="shape=document;whiteSpace=wrap;html=1;boundedLbl=1;" vertex="1" parent="1">
          <mxGeometry x="340" y="210" width="120" height="40" as="geometry" />
        </mxCell>
        <mxCell id="TUetWs9dm9FfKpNJwt7f-3" style="edgeStyle=orthogonalEdgeStyle;rounded=0;orthogonalLoop=1;jettySize=auto;html=1;exitX=0.5;exitY=1;exitDx=0;exitDy=0;" edge="1" parent="1" source="wKwD7mUX65wehN2HWuOq-6" target="TUetWs9dm9FfKpNJwt7f-1">
          <mxGeometry relative="1" as="geometry">
            <mxPoint x="400" y="180" as="sourcePoint" />
          </mxGeometry>
        </mxCell>
        <mxCell id="wKwD7mUX65wehN2HWuOq-7" style="edgeStyle=orthogonalEdgeStyle;rounded=0;orthogonalLoop=1;jettySize=auto;html=1;exitX=0.5;exitY=1;exitDx=0;exitDy=0;" edge="1" parent="1" source="TUetWs9dm9FfKpNJwt7f-2" target="wKwD7mUX65wehN2HWuOq-6">
          <mxGeometry relative="1" as="geometry" />
        </mxCell>
        <mxCell id="TUetWs9dm9FfKpNJwt7f-2" value="설정" style="ellipse;whiteSpace=wrap;html=1;aspect=fixed;" vertex="1" parent="1">
          <mxGeometry x="360" width="80" height="80" as="geometry" />
        </mxCell>
        <mxCell id="wKwD7mUX65wehN2HWuOq-10" style="edgeStyle=orthogonalEdgeStyle;rounded=0;orthogonalLoop=1;jettySize=auto;html=1;exitX=0.5;exitY=1;exitDx=0;exitDy=0;" edge="1" parent="1" source="TUetWs9dm9FfKpNJwt7f-4" target="wKwD7mUX65wehN2HWuOq-8">
          <mxGeometry relative="1" as="geometry" />
        </mxCell>
        <mxCell id="TUetWs9dm9FfKpNJwt7f-4" value="그래픽" style="rounded=0;whiteSpace=wrap;html=1;" vertex="1" parent="1">
          <mxGeometry x="270" y="290" width="100" height="40" as="geometry" />
        </mxCell>
        <mxCell id="TUetWs9dm9FfKpNJwt7f-14" style="edgeStyle=orthogonalEdgeStyle;rounded=0;orthogonalLoop=1;jettySize=auto;html=1;exitX=0.5;exitY=1;exitDx=0;exitDy=0;" edge="1" parent="1" source="TUetWs9dm9FfKpNJwt7f-5" target="TUetWs9dm9FfKpNJwt7f-12">
          <mxGeometry relative="1" as="geometry">
            <Array as="points">
              <mxPoint x="159.97" y="350" />
              <mxPoint x="79.97" y="350" />
              <mxPoint x="79.97" y="450" />
            </Array>
          </mxGeometry>
        </mxCell>
        <mxCell id="TUetWs9dm9FfKpNJwt7f-15" style="edgeStyle=orthogonalEdgeStyle;rounded=0;orthogonalLoop=1;jettySize=auto;html=1;entryX=0;entryY=0.5;entryDx=0;entryDy=0;" edge="1" parent="1" source="TUetWs9dm9FfKpNJwt7f-5" target="TUetWs9dm9FfKpNJwt7f-13">
          <mxGeometry relative="1" as="geometry">
            <Array as="points">
              <mxPoint x="159.97" y="350" />
              <mxPoint x="79.97" y="350" />
              <mxPoint x="79.97" y="390" />
            </Array>
          </mxGeometry>
        </mxCell>
        <mxCell id="TUetWs9dm9FfKpNJwt7f-17" style="edgeStyle=orthogonalEdgeStyle;rounded=0;orthogonalLoop=1;jettySize=auto;html=1;" edge="1" parent="1" source="TUetWs9dm9FfKpNJwt7f-5" target="TUetWs9dm9FfKpNJwt7f-16">
          <mxGeometry relative="1" as="geometry">
            <Array as="points">
              <mxPoint x="159.97" y="350" />
              <mxPoint x="79.97" y="350" />
              <mxPoint x="79.97" y="510" />
            </Array>
          </mxGeometry>
        </mxCell>
        <mxCell id="TUetWs9dm9FfKpNJwt7f-5" value="사운드" style="rounded=0;whiteSpace=wrap;html=1;" vertex="1" parent="1">
          <mxGeometry x="109.97" y="290" width="100" height="40" as="geometry" />
        </mxCell>
        <mxCell id="wKwD7mUX65wehN2HWuOq-13" style="edgeStyle=orthogonalEdgeStyle;rounded=0;orthogonalLoop=1;jettySize=auto;html=1;exitX=0.5;exitY=1;exitDx=0;exitDy=0;" edge="1" parent="1" source="TUetWs9dm9FfKpNJwt7f-6" target="wKwD7mUX65wehN2HWuOq-12">
          <mxGeometry relative="1" as="geometry" />
        </mxCell>
        <mxCell id="TUetWs9dm9FfKpNJwt7f-6" value="키 설정" style="rounded=0;whiteSpace=wrap;html=1;" vertex="1" parent="1">
          <mxGeometry x="420" y="290" width="100" height="40" as="geometry" />
        </mxCell>
        <mxCell id="wKwD7mUX65wehN2HWuOq-17" style="edgeStyle=orthogonalEdgeStyle;rounded=0;orthogonalLoop=1;jettySize=auto;html=1;exitX=0.5;exitY=1;exitDx=0;exitDy=0;" edge="1" parent="1" source="TUetWs9dm9FfKpNJwt7f-7" target="wKwD7mUX65wehN2HWuOq-16">
          <mxGeometry relative="1" as="geometry" />
        </mxCell>
        <mxCell id="TUetWs9dm9FfKpNJwt7f-7" value="언어" style="rounded=0;whiteSpace=wrap;html=1;" vertex="1" parent="1">
          <mxGeometry x="570" y="290" width="100" height="40" as="geometry" />
        </mxCell>
        <mxCell id="TUetWs9dm9FfKpNJwt7f-23" style="edgeStyle=orthogonalEdgeStyle;rounded=0;orthogonalLoop=1;jettySize=auto;html=1;exitX=1;exitY=0.5;exitDx=0;exitDy=0;entryX=0.993;entryY=0.502;entryDx=0;entryDy=0;entryPerimeter=0;" edge="1" parent="1" source="TUetWs9dm9FfKpNJwt7f-12" target="TUetWs9dm9FfKpNJwt7f-22">
          <mxGeometry relative="1" as="geometry">
            <mxPoint x="240" y="590" as="targetPoint" />
            <Array as="points">
              <mxPoint x="250" y="450" />
              <mxPoint x="250" y="590" />
            </Array>
          </mxGeometry>
        </mxCell>
        <mxCell id="TUetWs9dm9FfKpNJwt7f-12" value="효과음" style="rounded=0;whiteSpace=wrap;html=1;" vertex="1" parent="1">
          <mxGeometry x="109.97" y="430" width="100" height="40" as="geometry" />
        </mxCell>
        <mxCell id="TUetWs9dm9FfKpNJwt7f-20" style="edgeStyle=orthogonalEdgeStyle;rounded=0;orthogonalLoop=1;jettySize=auto;html=1;exitX=1;exitY=0.5;exitDx=0;exitDy=0;entryX=0.994;entryY=0.499;entryDx=0;entryDy=0;entryPerimeter=0;" edge="1" parent="1" source="TUetWs9dm9FfKpNJwt7f-13" target="TUetWs9dm9FfKpNJwt7f-22">
          <mxGeometry relative="1" as="geometry">
            <mxPoint x="260" y="570" as="targetPoint" />
          </mxGeometry>
        </mxCell>
        <mxCell id="TUetWs9dm9FfKpNJwt7f-13" value="BGM" style="rounded=0;whiteSpace=wrap;html=1;" vertex="1" parent="1">
          <mxGeometry x="109.97" y="370" width="100" height="40" as="geometry" />
        </mxCell>
        <mxCell id="TUetWs9dm9FfKpNJwt7f-24" style="edgeStyle=orthogonalEdgeStyle;rounded=0;orthogonalLoop=1;jettySize=auto;html=1;exitX=1;exitY=0.5;exitDx=0;exitDy=0;entryX=1;entryY=0.5;entryDx=0;entryDy=0;" edge="1" parent="1" source="TUetWs9dm9FfKpNJwt7f-16" target="TUetWs9dm9FfKpNJwt7f-22">
          <mxGeometry relative="1" as="geometry">
            <mxPoint x="240" y="590" as="targetPoint" />
            <Array as="points">
              <mxPoint x="250" y="510" />
              <mxPoint x="250" y="590" />
            </Array>
          </mxGeometry>
        </mxCell>
        <mxCell id="TUetWs9dm9FfKpNJwt7f-16" value="전체 사운드" style="rounded=0;whiteSpace=wrap;html=1;" vertex="1" parent="1">
          <mxGeometry x="109.97" y="490" width="100" height="40" as="geometry" />
        </mxCell>
        <mxCell id="TUetWs9dm9FfKpNJwt7f-18" value="슬라이드" style="rounded=0;whiteSpace=wrap;html=1;" vertex="1" parent="1">
          <mxGeometry x="99.97" y="550" width="120" height="30" as="geometry" />
        </mxCell>
        <mxCell id="TUetWs9dm9FfKpNJwt7f-19" value="값 입력" style="rounded=0;whiteSpace=wrap;html=1;" vertex="1" parent="1">
          <mxGeometry x="99.97" y="600" width="120" height="30" as="geometry" />
        </mxCell>
        <mxCell id="TUetWs9dm9FfKpNJwt7f-29" value="" style="group" vertex="1" connectable="0" parent="1">
          <mxGeometry x="320" y="680" width="140" height="140" as="geometry" />
        </mxCell>
        <mxCell id="TUetWs9dm9FfKpNJwt7f-28" value="" style="whiteSpace=wrap;html=1;aspect=fixed;" vertex="1" parent="TUetWs9dm9FfKpNJwt7f-29">
          <mxGeometry width="140" height="140" as="geometry" />
        </mxCell>
        <mxCell id="TUetWs9dm9FfKpNJwt7f-25" value="설정 저장" style="rounded=0;whiteSpace=wrap;html=1;" vertex="1" parent="TUetWs9dm9FfKpNJwt7f-29">
          <mxGeometry x="10" y="10" width="120" height="30" as="geometry" />
        </mxCell>
        <mxCell id="TUetWs9dm9FfKpNJwt7f-31" style="edgeStyle=orthogonalEdgeStyle;rounded=0;orthogonalLoop=1;jettySize=auto;html=1;exitX=0;exitY=0.5;exitDx=0;exitDy=0;" edge="1" parent="TUetWs9dm9FfKpNJwt7f-29" source="TUetWs9dm9FfKpNJwt7f-26">
          <mxGeometry relative="1" as="geometry">
            <mxPoint x="-60" y="70" as="targetPoint" />
          </mxGeometry>
        </mxCell>
        <mxCell id="TUetWs9dm9FfKpNJwt7f-26" value="설정 초기화" style="rounded=0;whiteSpace=wrap;html=1;" vertex="1" parent="TUetWs9dm9FfKpNJwt7f-29">
          <mxGeometry x="10" y="55" width="120" height="30" as="geometry" />
        </mxCell>
        <mxCell id="TUetWs9dm9FfKpNJwt7f-27" value="값 변경 취소" style="rounded=0;whiteSpace=wrap;html=1;" vertex="1" parent="TUetWs9dm9FfKpNJwt7f-29">
          <mxGeometry x="10" y="100" width="120" height="30" as="geometry" />
        </mxCell>
        <mxCell id="wKwD7mUX65wehN2HWuOq-1" value="설정 값 저장하기" style="rounded=1;whiteSpace=wrap;html=1;" vertex="1" parent="1">
          <mxGeometry x="510" y="685" width="80" height="40" as="geometry" />
        </mxCell>
        <mxCell id="wKwD7mUX65wehN2HWuOq-2" value="기본 설정 값 불러오기" style="rounded=1;whiteSpace=wrap;html=1;" vertex="1" parent="1">
          <mxGeometry x="180" y="730" width="80" height="40" as="geometry" />
        </mxCell>
        <mxCell id="wKwD7mUX65wehN2HWuOq-6" value="저장된 설정 값 불러오기&lt;br&gt;사운드/그래픽/키 설정/언어 파일 각각 나눠서" style="rounded=1;whiteSpace=wrap;html=1;" vertex="1" parent="1">
          <mxGeometry x="250" y="130" width="300" height="40" as="geometry" />
        </mxCell>
        <mxCell id="wKwD7mUX65wehN2HWuOq-9" style="edgeStyle=orthogonalEdgeStyle;rounded=0;orthogonalLoop=1;jettySize=auto;html=1;entryX=0.5;entryY=0;entryDx=0;entryDy=0;" edge="1" parent="1" source="wKwD7mUX65wehN2HWuOq-8" target="TUetWs9dm9FfKpNJwt7f-28">
          <mxGeometry relative="1" as="geometry">
            <Array as="points">
              <mxPoint x="320" y="660" />
              <mxPoint x="390" y="660" />
            </Array>
          </mxGeometry>
        </mxCell>
        <mxCell id="wKwD7mUX65wehN2HWuOq-8" value="화면 스케일 조정" style="rounded=0;whiteSpace=wrap;html=1;" vertex="1" parent="1">
          <mxGeometry x="270" y="370" width="100" height="40" as="geometry" />
        </mxCell>
        <mxCell id="wKwD7mUX65wehN2HWuOq-15" style="edgeStyle=orthogonalEdgeStyle;rounded=0;orthogonalLoop=1;jettySize=auto;html=1;entryX=0.5;entryY=0;entryDx=0;entryDy=0;" edge="1" parent="1" source="wKwD7mUX65wehN2HWuOq-12" target="TUetWs9dm9FfKpNJwt7f-28">
          <mxGeometry relative="1" as="geometry">
            <Array as="points">
              <mxPoint x="470" y="660" />
              <mxPoint x="390" y="660" />
            </Array>
          </mxGeometry>
        </mxCell>
        <mxCell id="wKwD7mUX65wehN2HWuOq-12" value="키 바인딩 창" style="shape=document;whiteSpace=wrap;html=1;boundedLbl=1;" vertex="1" parent="1">
          <mxGeometry x="410" y="370" width="120" height="40" as="geometry" />
        </mxCell>
        <mxCell id="wKwD7mUX65wehN2HWuOq-18" style="edgeStyle=orthogonalEdgeStyle;rounded=0;orthogonalLoop=1;jettySize=auto;html=1;exitX=0.5;exitY=1;exitDx=0;exitDy=0;entryX=0.5;entryY=0;entryDx=0;entryDy=0;" edge="1" parent="1" source="wKwD7mUX65wehN2HWuOq-16" target="TUetWs9dm9FfKpNJwt7f-28">
          <mxGeometry relative="1" as="geometry">
            <Array as="points">
              <mxPoint x="620" y="660" />
              <mxPoint x="390" y="660" />
            </Array>
          </mxGeometry>
        </mxCell>
        <mxCell id="wKwD7mUX65wehN2HWuOq-16" value="언어 선택" style="rounded=0;whiteSpace=wrap;html=1;" vertex="1" parent="1">
          <mxGeometry x="570" y="370" width="100" height="40" as="geometry" />
        </mxCell>
        <mxCell id="wKwD7mUX65wehN2HWuOq-23" style="edgeStyle=orthogonalEdgeStyle;rounded=0;orthogonalLoop=1;jettySize=auto;html=1;exitX=0.5;exitY=1;exitDx=0;exitDy=0;entryX=0.5;entryY=0;entryDx=0;entryDy=0;" edge="1" parent="1" source="wKwD7mUX65wehN2HWuOq-20" target="wKwD7mUX65wehN2HWuOq-22">
          <mxGeometry relative="1" as="geometry" />
        </mxCell>
        <mxCell id="wKwD7mUX65wehN2HWuOq-20" value="닫기 버튼" style="rounded=1;whiteSpace=wrap;html=1;" vertex="1" parent="1">
          <mxGeometry x="680" y="200" width="120" height="60" as="geometry" />
        </mxCell>
        <mxCell id="wKwD7mUX65wehN2HWuOq-24" style="edgeStyle=orthogonalEdgeStyle;rounded=0;orthogonalLoop=1;jettySize=auto;html=1;exitX=0.5;exitY=1;exitDx=0;exitDy=0;" edge="1" parent="1" source="wKwD7mUX65wehN2HWuOq-22" target="wKwD7mUX65wehN2HWuOq-26">
          <mxGeometry relative="1" as="geometry">
            <mxPoint x="750" y="440" as="targetPoint" />
            <Array as="points">
              <mxPoint x="740" y="400" />
              <mxPoint x="740" y="400" />
            </Array>
          </mxGeometry>
        </mxCell>
        <mxCell id="wKwD7mUX65wehN2HWuOq-32" value="Yes" style="edgeLabel;html=1;align=center;verticalAlign=middle;resizable=0;points=[];" vertex="1" connectable="0" parent="wKwD7mUX65wehN2HWuOq-24">
          <mxGeometry x="-0.25" y="3" relative="1" as="geometry">
            <mxPoint as="offset" />
          </mxGeometry>
        </mxCell>
        <mxCell id="wKwD7mUX65wehN2HWuOq-31" style="edgeStyle=orthogonalEdgeStyle;rounded=0;orthogonalLoop=1;jettySize=auto;html=1;exitX=1;exitY=0.5;exitDx=0;exitDy=0;" edge="1" parent="1" source="wKwD7mUX65wehN2HWuOq-22" target="wKwD7mUX65wehN2HWuOq-29">
          <mxGeometry relative="1" as="geometry">
            <Array as="points">
              <mxPoint x="810" y="340" />
              <mxPoint x="810" y="790" />
            </Array>
          </mxGeometry>
        </mxCell>
        <mxCell id="wKwD7mUX65wehN2HWuOq-35" value="No" style="edgeLabel;html=1;align=center;verticalAlign=middle;resizable=0;points=[];" vertex="1" connectable="0" parent="wKwD7mUX65wehN2HWuOq-31">
          <mxGeometry x="-0.7538" y="-1" relative="1" as="geometry">
            <mxPoint as="offset" />
          </mxGeometry>
        </mxCell>
        <mxCell id="wKwD7mUX65wehN2HWuOq-22" value="변경 된&lt;br&gt;값이 있다면?" style="rhombus;whiteSpace=wrap;html=1;" vertex="1" parent="1">
          <mxGeometry x="680" y="300" width="120" height="80" as="geometry" />
        </mxCell>
        <mxCell id="wKwD7mUX65wehN2HWuOq-28" style="edgeStyle=orthogonalEdgeStyle;rounded=0;orthogonalLoop=1;jettySize=auto;html=1;exitX=0.5;exitY=1;exitDx=0;exitDy=0;entryX=1;entryY=0.5;entryDx=0;entryDy=0;" edge="1" parent="1" source="wKwD7mUX65wehN2HWuOq-26" target="wKwD7mUX65wehN2HWuOq-1">
          <mxGeometry relative="1" as="geometry" />
        </mxCell>
        <mxCell id="wKwD7mUX65wehN2HWuOq-33" value="저장" style="edgeLabel;html=1;align=center;verticalAlign=middle;resizable=0;points=[];" vertex="1" connectable="0" parent="wKwD7mUX65wehN2HWuOq-28">
          <mxGeometry x="-0.5211" relative="1" as="geometry">
            <mxPoint as="offset" />
          </mxGeometry>
        </mxCell>
        <mxCell id="wKwD7mUX65wehN2HWuOq-30" style="edgeStyle=orthogonalEdgeStyle;rounded=0;orthogonalLoop=1;jettySize=auto;html=1;exitX=1;exitY=0.5;exitDx=0;exitDy=0;entryX=1;entryY=0.5;entryDx=0;entryDy=0;" edge="1" parent="1" source="wKwD7mUX65wehN2HWuOq-26" target="wKwD7mUX65wehN2HWuOq-29">
          <mxGeometry relative="1" as="geometry">
            <Array as="points">
              <mxPoint x="810" y="460" />
              <mxPoint x="810" y="790" />
            </Array>
          </mxGeometry>
        </mxCell>
        <mxCell id="wKwD7mUX65wehN2HWuOq-34" value="취소" style="edgeLabel;html=1;align=center;verticalAlign=middle;resizable=0;points=[];" vertex="1" connectable="0" parent="wKwD7mUX65wehN2HWuOq-30">
          <mxGeometry x="-0.5208" y="-2" relative="1" as="geometry">
            <mxPoint as="offset" />
          </mxGeometry>
        </mxCell>
        <mxCell id="wKwD7mUX65wehN2HWuOq-26" value="취소 or 저장" style="rhombus;whiteSpace=wrap;html=1;" vertex="1" parent="1">
          <mxGeometry x="680" y="420" width="120" height="80" as="geometry" />
        </mxCell>
        <mxCell id="TUetWs9dm9FfKpNJwt7f-32" style="edgeStyle=orthogonalEdgeStyle;rounded=0;orthogonalLoop=1;jettySize=auto;html=1;exitX=1;exitY=0.5;exitDx=0;exitDy=0;entryX=0;entryY=0.5;entryDx=0;entryDy=0;" edge="1" parent="1" source="TUetWs9dm9FfKpNJwt7f-25" target="wKwD7mUX65wehN2HWuOq-1">
          <mxGeometry relative="1" as="geometry">
            <mxPoint x="260" y="705" as="targetPoint" />
          </mxGeometry>
        </mxCell>
        <mxCell id="wKwD7mUX65wehN2HWuOq-29" value="창 닫기" style="rounded=1;whiteSpace=wrap;html=1;" vertex="1" parent="1">
          <mxGeometry x="500" y="760" width="120" height="60" as="geometry" />
        </mxCell>
      </root>
    </mxGraphModel>
  </diagram>
  <diagram id="fL1xp2sKojSUp0fVGEc-" name="UI">
    <mxGraphModel dx="2049" dy="1114" grid="1" gridSize="10" guides="1" tooltips="1" connect="1" arrows="1" fold="1" page="1" pageScale="1" pageWidth="1920" pageHeight="1200" math="0" shadow="0">
      <root>
        <mxCell id="0" />
        <mxCell id="1" parent="0" />
        <mxCell id="rJWJfq6Y_P7sirnbrL6--2" style="edgeStyle=orthogonalEdgeStyle;rounded=0;orthogonalLoop=1;jettySize=auto;html=1;exitX=0.5;exitY=1;exitDx=0;exitDy=0;" edge="1" parent="1" source="UhvhoT94SCrbplA3BQ82-1" target="rJWJfq6Y_P7sirnbrL6--1">
          <mxGeometry relative="1" as="geometry" />
        </mxCell>
        <mxCell id="UhvhoT94SCrbplA3BQ82-1" value="상점창" style="rounded=1;whiteSpace=wrap;html=1;" vertex="1" parent="1">
          <mxGeometry x="120" y="40" width="120" height="60" as="geometry" />
        </mxCell>
        <mxCell id="UhvhoT94SCrbplA3BQ82-2" value="상점창" style="rounded=1;whiteSpace=wrap;html=1;" vertex="1" parent="1">
          <mxGeometry x="500" y="50" width="120" height="60" as="geometry" />
        </mxCell>
        <mxCell id="UhvhoT94SCrbplA3BQ82-3" value="상점창" style="rounded=1;whiteSpace=wrap;html=1;" vertex="1" parent="1">
          <mxGeometry x="730" y="60" width="120" height="60" as="geometry" />
        </mxCell>
        <mxCell id="UhvhoT94SCrbplA3BQ82-4" value="상점창" style="rounded=1;whiteSpace=wrap;html=1;" vertex="1" parent="1">
          <mxGeometry x="1020" y="40" width="120" height="60" as="geometry" />
        </mxCell>
        <mxCell id="UhvhoT94SCrbplA3BQ82-5" value="상점창" style="rounded=1;whiteSpace=wrap;html=1;" vertex="1" parent="1">
          <mxGeometry x="1340" y="50" width="120" height="60" as="geometry" />
        </mxCell>
        <mxCell id="792kWdFVzXfrNeUtmYrJ-2" value="" style="edgeStyle=orthogonalEdgeStyle;rounded=0;orthogonalLoop=1;jettySize=auto;html=1;" edge="1" parent="1" source="rJWJfq6Y_P7sirnbrL6--1" target="792kWdFVzXfrNeUtmYrJ-1">
          <mxGeometry relative="1" as="geometry" />
        </mxCell>
        <mxCell id="rJWJfq6Y_P7sirnbrL6--1" value="상점 창 열기" style="shape=document;whiteSpace=wrap;html=1;boundedLbl=1;" vertex="1" parent="1">
          <mxGeometry x="120" y="140" width="120" height="40" as="geometry" />
        </mxCell>
        <mxCell id="HEoYZW0DzHpHETLdRSYa-27" style="edgeStyle=orthogonalEdgeStyle;rounded=0;orthogonalLoop=1;jettySize=auto;html=1;exitX=0.5;exitY=1;exitDx=0;exitDy=0;" edge="1" parent="1" source="792kWdFVzXfrNeUtmYrJ-1" target="HEoYZW0DzHpHETLdRSYa-1">
          <mxGeometry relative="1" as="geometry" />
        </mxCell>
        <mxCell id="792kWdFVzXfrNeUtmYrJ-1" value="아이템 클릭" style="whiteSpace=wrap;html=1;" vertex="1" parent="1">
          <mxGeometry x="120" y="210" width="120" height="60" as="geometry" />
        </mxCell>
        <mxCell id="HEoYZW0DzHpHETLdRSYa-28" style="edgeStyle=orthogonalEdgeStyle;rounded=0;orthogonalLoop=1;jettySize=auto;html=1;exitX=0.5;exitY=1;exitDx=0;exitDy=0;entryX=0.5;entryY=0;entryDx=0;entryDy=0;" edge="1" parent="1" source="HEoYZW0DzHpHETLdRSYa-1" target="HEoYZW0DzHpHETLdRSYa-13">
          <mxGeometry relative="1" as="geometry" />
        </mxCell>
        <mxCell id="HEoYZW0DzHpHETLdRSYa-32" value="좌클릭" style="edgeLabel;html=1;align=center;verticalAlign=middle;resizable=0;points=[];" vertex="1" connectable="0" parent="HEoYZW0DzHpHETLdRSYa-28">
          <mxGeometry x="-0.2381" relative="1" as="geometry">
            <mxPoint as="offset" />
          </mxGeometry>
        </mxCell>
        <mxCell id="HEoYZW0DzHpHETLdRSYa-29" style="edgeStyle=orthogonalEdgeStyle;rounded=0;orthogonalLoop=1;jettySize=auto;html=1;exitX=1;exitY=0.5;exitDx=0;exitDy=0;entryX=0.049;entryY=0.5;entryDx=0;entryDy=0;entryPerimeter=0;" edge="1" parent="1" source="HEoYZW0DzHpHETLdRSYa-1" target="HEoYZW0DzHpHETLdRSYa-30">
          <mxGeometry relative="1" as="geometry">
            <mxPoint x="290" y="340" as="targetPoint" />
          </mxGeometry>
        </mxCell>
        <mxCell id="HEoYZW0DzHpHETLdRSYa-31" value="우클릭" style="edgeLabel;html=1;align=center;verticalAlign=middle;resizable=0;points=[];" vertex="1" connectable="0" parent="HEoYZW0DzHpHETLdRSYa-29">
          <mxGeometry x="-0.1146" y="-2" relative="1" as="geometry">
            <mxPoint as="offset" />
          </mxGeometry>
        </mxCell>
        <mxCell id="HEoYZW0DzHpHETLdRSYa-1" value="우클릭?좌클릭" style="rhombus;whiteSpace=wrap;html=1;" vertex="1" parent="1">
          <mxGeometry x="120" y="300" width="120" height="80" as="geometry" />
        </mxCell>
        <mxCell id="HEoYZW0DzHpHETLdRSYa-5" style="edgeStyle=orthogonalEdgeStyle;rounded=0;orthogonalLoop=1;jettySize=auto;html=1;exitX=1;exitY=0.5;exitDx=0;exitDy=0;" edge="1" parent="1" source="HEoYZW0DzHpHETLdRSYa-3" target="HEoYZW0DzHpHETLdRSYa-4">
          <mxGeometry relative="1" as="geometry" />
        </mxCell>
        <mxCell id="HEoYZW0DzHpHETLdRSYa-7" style="edgeStyle=orthogonalEdgeStyle;rounded=0;orthogonalLoop=1;jettySize=auto;html=1;exitX=0.5;exitY=1;exitDx=0;exitDy=0;" edge="1" parent="1" source="HEoYZW0DzHpHETLdRSYa-3" target="HEoYZW0DzHpHETLdRSYa-34">
          <mxGeometry relative="1" as="geometry">
            <mxPoint x="230" y="740" as="targetPoint" />
          </mxGeometry>
        </mxCell>
        <mxCell id="HEoYZW0DzHpHETLdRSYa-3" value="돈이 충분한가?" style="rhombus;whiteSpace=wrap;html=1;" vertex="1" parent="1">
          <mxGeometry x="120" y="650" width="120" height="80" as="geometry" />
        </mxCell>
        <mxCell id="HEoYZW0DzHpHETLdRSYa-4" value="돈이 부족하다고 출력하기" style="whiteSpace=wrap;html=1;" vertex="1" parent="1">
          <mxGeometry x="320" y="670" width="90" height="40" as="geometry" />
        </mxCell>
        <mxCell id="HEoYZW0DzHpHETLdRSYa-10" value="아이템 설명 창 출력" style="whiteSpace=wrap;html=1;" vertex="1" parent="1">
          <mxGeometry x="320" y="435" width="90" height="40" as="geometry" />
        </mxCell>
        <mxCell id="HEoYZW0DzHpHETLdRSYa-16" style="edgeStyle=orthogonalEdgeStyle;rounded=0;orthogonalLoop=1;jettySize=auto;html=1;exitX=0.5;exitY=1;exitDx=0;exitDy=0;" edge="1" parent="1" source="HEoYZW0DzHpHETLdRSYa-12" target="HEoYZW0DzHpHETLdRSYa-3">
          <mxGeometry relative="1" as="geometry" />
        </mxCell>
        <mxCell id="HEoYZW0DzHpHETLdRSYa-21" style="edgeStyle=orthogonalEdgeStyle;rounded=0;orthogonalLoop=1;jettySize=auto;html=1;exitX=1;exitY=0.5;exitDx=0;exitDy=0;entryX=0;entryY=0.5;entryDx=0;entryDy=0;" edge="1" parent="1" source="HEoYZW0DzHpHETLdRSYa-12" target="HEoYZW0DzHpHETLdRSYa-22">
          <mxGeometry relative="1" as="geometry">
            <mxPoint x="270" y="580" as="targetPoint" />
          </mxGeometry>
        </mxCell>
        <mxCell id="HEoYZW0DzHpHETLdRSYa-12" value="아이템을 &lt;br&gt;들고 있는가?" style="rhombus;whiteSpace=wrap;html=1;" vertex="1" parent="1">
          <mxGeometry x="120" y="540" width="120" height="80" as="geometry" />
        </mxCell>
        <mxCell id="HEoYZW0DzHpHETLdRSYa-15" style="edgeStyle=orthogonalEdgeStyle;rounded=0;orthogonalLoop=1;jettySize=auto;html=1;exitX=1;exitY=0.5;exitDx=0;exitDy=0;entryX=0;entryY=0.5;entryDx=0;entryDy=0;" edge="1" parent="1" source="HEoYZW0DzHpHETLdRSYa-13" target="HEoYZW0DzHpHETLdRSYa-10">
          <mxGeometry relative="1" as="geometry">
            <mxPoint x="290" y="455" as="targetPoint" />
          </mxGeometry>
        </mxCell>
        <mxCell id="HEoYZW0DzHpHETLdRSYa-33" value="no" style="edgeLabel;html=1;align=center;verticalAlign=middle;resizable=0;points=[];" vertex="1" connectable="0" parent="HEoYZW0DzHpHETLdRSYa-15">
          <mxGeometry x="0.0782" y="3" relative="1" as="geometry">
            <mxPoint as="offset" />
          </mxGeometry>
        </mxCell>
        <mxCell id="HEoYZW0DzHpHETLdRSYa-25" style="edgeStyle=orthogonalEdgeStyle;rounded=0;orthogonalLoop=1;jettySize=auto;html=1;exitX=0.5;exitY=1;exitDx=0;exitDy=0;" edge="1" parent="1" source="HEoYZW0DzHpHETLdRSYa-13" target="HEoYZW0DzHpHETLdRSYa-12">
          <mxGeometry relative="1" as="geometry">
            <mxPoint x="180" y="520" as="sourcePoint" />
          </mxGeometry>
        </mxCell>
        <mxCell id="HEoYZW0DzHpHETLdRSYa-35" value="yes" style="edgeLabel;html=1;align=center;verticalAlign=middle;resizable=0;points=[];" vertex="1" connectable="0" parent="HEoYZW0DzHpHETLdRSYa-25">
          <mxGeometry x="-0.4074" y="-1" relative="1" as="geometry">
            <mxPoint as="offset" />
          </mxGeometry>
        </mxCell>
        <mxCell id="HEoYZW0DzHpHETLdRSYa-13" value="구매 버튼을 &lt;br&gt;누른 상태인가?" style="rhombus;whiteSpace=wrap;html=1;" vertex="1" parent="1">
          <mxGeometry x="120" y="415" width="120" height="80" as="geometry" />
        </mxCell>
        <mxCell id="HEoYZW0DzHpHETLdRSYa-24" style="edgeStyle=orthogonalEdgeStyle;rounded=0;orthogonalLoop=1;jettySize=auto;html=1;" edge="1" parent="1" source="HEoYZW0DzHpHETLdRSYa-22" target="HEoYZW0DzHpHETLdRSYa-23">
          <mxGeometry relative="1" as="geometry" />
        </mxCell>
        <mxCell id="HEoYZW0DzHpHETLdRSYa-41" style="edgeStyle=orthogonalEdgeStyle;rounded=0;orthogonalLoop=1;jettySize=auto;html=1;exitX=0.5;exitY=1;exitDx=0;exitDy=0;" edge="1" parent="1" source="HEoYZW0DzHpHETLdRSYa-22" target="HEoYZW0DzHpHETLdRSYa-4">
          <mxGeometry relative="1" as="geometry" />
        </mxCell>
        <mxCell id="HEoYZW0DzHpHETLdRSYa-22" value="돈이 충분한가?" style="rhombus;whiteSpace=wrap;html=1;" vertex="1" parent="1">
          <mxGeometry x="305" y="540" width="120" height="80" as="geometry" />
        </mxCell>
        <mxCell id="HEoYZW0DzHpHETLdRSYa-47" style="edgeStyle=orthogonalEdgeStyle;rounded=0;orthogonalLoop=1;jettySize=auto;html=1;exitX=1;exitY=0.5;exitDx=0;exitDy=0;entryX=0.5;entryY=0;entryDx=0;entryDy=0;" edge="1" parent="1" source="HEoYZW0DzHpHETLdRSYa-23" target="HEoYZW0DzHpHETLdRSYa-46">
          <mxGeometry relative="1" as="geometry">
            <Array as="points">
              <mxPoint x="685" y="580" />
            </Array>
          </mxGeometry>
        </mxCell>
        <mxCell id="HEoYZW0DzHpHETLdRSYa-52" value="no" style="edgeLabel;html=1;align=center;verticalAlign=middle;resizable=0;points=[];" vertex="1" connectable="0" parent="HEoYZW0DzHpHETLdRSYa-47">
          <mxGeometry x="0.3333" y="1" relative="1" as="geometry">
            <mxPoint as="offset" />
          </mxGeometry>
        </mxCell>
        <mxCell id="HEoYZW0DzHpHETLdRSYa-50" style="edgeStyle=orthogonalEdgeStyle;rounded=0;orthogonalLoop=1;jettySize=auto;html=1;exitX=0.5;exitY=1;exitDx=0;exitDy=0;" edge="1" parent="1" source="HEoYZW0DzHpHETLdRSYa-23" target="HEoYZW0DzHpHETLdRSYa-45">
          <mxGeometry relative="1" as="geometry" />
        </mxCell>
        <mxCell id="HEoYZW0DzHpHETLdRSYa-51" value="yes" style="edgeLabel;html=1;align=center;verticalAlign=middle;resizable=0;points=[];" vertex="1" connectable="0" parent="HEoYZW0DzHpHETLdRSYa-50">
          <mxGeometry x="0.4242" relative="1" as="geometry">
            <mxPoint as="offset" />
          </mxGeometry>
        </mxCell>
        <mxCell id="HEoYZW0DzHpHETLdRSYa-23" value="들고 있는 &lt;br&gt;아이템과&amp;nbsp;&lt;br&gt;구매할 아이템이&lt;br&gt;&amp;nbsp;같은 아이템인가?" style="rhombus;whiteSpace=wrap;html=1;" vertex="1" parent="1">
          <mxGeometry x="475" y="515" width="195" height="130" as="geometry" />
        </mxCell>
        <mxCell id="HEoYZW0DzHpHETLdRSYa-36" value="no" style="edgeStyle=orthogonalEdgeStyle;rounded=0;orthogonalLoop=1;jettySize=auto;html=1;exitX=0.5;exitY=1;exitDx=0;exitDy=0;" edge="1" parent="1" source="HEoYZW0DzHpHETLdRSYa-30" target="HEoYZW0DzHpHETLdRSYa-10">
          <mxGeometry relative="1" as="geometry" />
        </mxCell>
        <mxCell id="HEoYZW0DzHpHETLdRSYa-39" style="edgeStyle=orthogonalEdgeStyle;rounded=0;orthogonalLoop=1;jettySize=auto;html=1;exitX=1;exitY=0.5;exitDx=0;exitDy=0;" edge="1" parent="1" source="HEoYZW0DzHpHETLdRSYa-30" target="HEoYZW0DzHpHETLdRSYa-38">
          <mxGeometry relative="1" as="geometry" />
        </mxCell>
        <mxCell id="HEoYZW0DzHpHETLdRSYa-30" value="구매 버튼을 &lt;br&gt;누른 상태인가?" style="rhombus;whiteSpace=wrap;html=1;" vertex="1" parent="1">
          <mxGeometry x="305" y="300" width="120" height="80" as="geometry" />
        </mxCell>
        <mxCell id="HEoYZW0DzHpHETLdRSYa-57" style="edgeStyle=orthogonalEdgeStyle;rounded=0;orthogonalLoop=1;jettySize=auto;html=1;exitX=0.5;exitY=1;exitDx=0;exitDy=0;entryX=0;entryY=0.5;entryDx=0;entryDy=0;" edge="1" parent="1" source="HEoYZW0DzHpHETLdRSYa-34" target="HEoYZW0DzHpHETLdRSYa-55">
          <mxGeometry relative="1" as="geometry" />
        </mxCell>
        <mxCell id="HEoYZW0DzHpHETLdRSYa-34" value="아이템을 &lt;br&gt;들고 있기" style="whiteSpace=wrap;html=1;" vertex="1" parent="1">
          <mxGeometry x="135" y="760" width="90" height="40" as="geometry" />
        </mxCell>
        <mxCell id="HEoYZW0DzHpHETLdRSYa-40" style="edgeStyle=orthogonalEdgeStyle;rounded=0;orthogonalLoop=1;jettySize=auto;html=1;exitX=0.5;exitY=1;exitDx=0;exitDy=0;entryX=0.5;entryY=0;entryDx=0;entryDy=0;" edge="1" parent="1" source="HEoYZW0DzHpHETLdRSYa-38" target="HEoYZW0DzHpHETLdRSYa-4">
          <mxGeometry relative="1" as="geometry">
            <mxPoint x="350" y="660" as="targetPoint" />
            <Array as="points">
              <mxPoint x="535" y="460" />
              <mxPoint x="440" y="460" />
              <mxPoint x="440" y="640" />
              <mxPoint x="365" y="640" />
            </Array>
          </mxGeometry>
        </mxCell>
        <mxCell id="HEoYZW0DzHpHETLdRSYa-43" style="edgeStyle=orthogonalEdgeStyle;rounded=0;orthogonalLoop=1;jettySize=auto;html=1;exitX=1;exitY=0.5;exitDx=0;exitDy=0;entryX=0;entryY=0.5;entryDx=0;entryDy=0;" edge="1" parent="1" source="HEoYZW0DzHpHETLdRSYa-38" target="HEoYZW0DzHpHETLdRSYa-42">
          <mxGeometry relative="1" as="geometry" />
        </mxCell>
        <mxCell id="HEoYZW0DzHpHETLdRSYa-38" value="돈이 충분한가?" style="rhombus;whiteSpace=wrap;html=1;" vertex="1" parent="1">
          <mxGeometry x="475" y="300" width="120" height="80" as="geometry" />
        </mxCell>
        <mxCell id="HEoYZW0DzHpHETLdRSYa-58" style="edgeStyle=orthogonalEdgeStyle;rounded=0;orthogonalLoop=1;jettySize=auto;html=1;exitX=1;exitY=0.5;exitDx=0;exitDy=0;entryX=1;entryY=0.5;entryDx=0;entryDy=0;" edge="1" parent="1" source="HEoYZW0DzHpHETLdRSYa-42" target="HEoYZW0DzHpHETLdRSYa-55">
          <mxGeometry relative="1" as="geometry">
            <Array as="points">
              <mxPoint x="760" y="340" />
              <mxPoint x="760" y="890" />
            </Array>
          </mxGeometry>
        </mxCell>
        <mxCell id="HEoYZW0DzHpHETLdRSYa-42" value="창고에 넣기" style="whiteSpace=wrap;html=1;" vertex="1" parent="1">
          <mxGeometry x="620" y="320" width="90" height="40" as="geometry" />
        </mxCell>
        <mxCell id="HEoYZW0DzHpHETLdRSYa-54" style="edgeStyle=orthogonalEdgeStyle;rounded=0;orthogonalLoop=1;jettySize=auto;html=1;exitX=0.5;exitY=1;exitDx=0;exitDy=0;entryX=1;entryY=0.5;entryDx=0;entryDy=0;" edge="1" parent="1" source="HEoYZW0DzHpHETLdRSYa-44" target="HEoYZW0DzHpHETLdRSYa-55">
          <mxGeometry relative="1" as="geometry">
            <mxPoint x="572.5" y="860" as="targetPoint" />
          </mxGeometry>
        </mxCell>
        <mxCell id="HEoYZW0DzHpHETLdRSYa-44" value="들고 있는 아이템의 스택 +1" style="whiteSpace=wrap;html=1;" vertex="1" parent="1">
          <mxGeometry x="527.5" y="790" width="90" height="40" as="geometry" />
        </mxCell>
        <mxCell id="HEoYZW0DzHpHETLdRSYa-48" style="edgeStyle=orthogonalEdgeStyle;rounded=0;orthogonalLoop=1;jettySize=auto;html=1;exitX=0.5;exitY=1;exitDx=0;exitDy=0;" edge="1" parent="1" source="HEoYZW0DzHpHETLdRSYa-45" target="HEoYZW0DzHpHETLdRSYa-44">
          <mxGeometry relative="1" as="geometry" />
        </mxCell>
        <mxCell id="HEoYZW0DzHpHETLdRSYa-49" value="no" style="edgeLabel;html=1;align=center;verticalAlign=middle;resizable=0;points=[];" vertex="1" connectable="0" parent="HEoYZW0DzHpHETLdRSYa-48">
          <mxGeometry x="0.3636" y="1" relative="1" as="geometry">
            <mxPoint as="offset" />
          </mxGeometry>
        </mxCell>
        <mxCell id="HEoYZW0DzHpHETLdRSYa-53" style="edgeStyle=orthogonalEdgeStyle;rounded=0;orthogonalLoop=1;jettySize=auto;html=1;exitX=1;exitY=0.5;exitDx=0;exitDy=0;entryX=0.5;entryY=1;entryDx=0;entryDy=0;" edge="1" parent="1" source="HEoYZW0DzHpHETLdRSYa-45" target="HEoYZW0DzHpHETLdRSYa-46">
          <mxGeometry relative="1" as="geometry" />
        </mxCell>
        <mxCell id="HEoYZW0DzHpHETLdRSYa-45" value="들고 있는 &lt;br&gt;아이템의 스택이&lt;br&gt;&amp;nbsp;최대치인가?" style="rhombus;whiteSpace=wrap;html=1;" vertex="1" parent="1">
          <mxGeometry x="517.5" y="670" width="110" height="95" as="geometry" />
        </mxCell>
        <mxCell id="HEoYZW0DzHpHETLdRSYa-46" value="에러 메세지&lt;br&gt;&amp;nbsp;출력" style="whiteSpace=wrap;html=1;" vertex="1" parent="1">
          <mxGeometry x="640" y="640" width="90" height="40" as="geometry" />
        </mxCell>
        <mxCell id="HEoYZW0DzHpHETLdRSYa-55" value="아이템의 가격만큼 골드-" style="whiteSpace=wrap;html=1;" vertex="1" parent="1">
          <mxGeometry x="320" y="870" width="90" height="40" as="geometry" />
        </mxCell>
      </root>
    </mxGraphModel>
  </diagram>
  <diagram id="wQ2bYzIsGd_yMMajj9DA" name="맵 생성">
    <mxGraphModel dx="1434" dy="780" grid="1" gridSize="10" guides="1" tooltips="1" connect="1" arrows="1" fold="1" page="1" pageScale="1" pageWidth="827" pageHeight="1169" math="0" shadow="0">
      <root>
        <mxCell id="0" />
        <mxCell id="1" parent="0" />
      </root>
    </mxGraphModel>
  </diagram>
  <diagram id="GZtRnq3hINkwTnw5uuWs" name="퀘스트">
    <mxGraphModel dx="1434" dy="780" grid="1" gridSize="10" guides="1" tooltips="1" connect="1" arrows="1" fold="1" page="1" pageScale="1" pageWidth="1920" pageHeight="1200" math="0" shadow="0">
      <root>
        <mxCell id="0" />
        <mxCell id="1" parent="0" />
      </root>
    </mxGraphModel>
  </diagram>
  <diagram id="vyf2hsDfCkzWh-qYu4Y7" name="마을 불러오기">
    <mxGraphModel dx="989" dy="538" grid="1" gridSize="10" guides="1" tooltips="1" connect="1" arrows="1" fold="1" page="1" pageScale="1" pageWidth="1920" pageHeight="1200" math="0" shadow="0">
      <root>
        <mxCell id="0" />
        <mxCell id="1" parent="0" />
        <mxCell id="MTHG70GyFPJiCXl0d9hX-4" style="edgeStyle=orthogonalEdgeStyle;rounded=0;orthogonalLoop=1;jettySize=auto;html=1;exitX=0.5;exitY=1;exitDx=0;exitDy=0;" edge="1" parent="1" source="MTHG70GyFPJiCXl0d9hX-2" target="MTHG70GyFPJiCXl0d9hX-3">
          <mxGeometry relative="1" as="geometry" />
        </mxCell>
        <mxCell id="MTHG70GyFPJiCXl0d9hX-2" value="상점 목록 초기화" style="rounded=0;whiteSpace=wrap;html=1;" vertex="1" parent="1">
          <mxGeometry x="40" y="180" width="120" height="30" as="geometry" />
        </mxCell>
        <mxCell id="MTHG70GyFPJiCXl0d9hX-6" style="edgeStyle=orthogonalEdgeStyle;rounded=0;orthogonalLoop=1;jettySize=auto;html=1;" edge="1" parent="1" source="MTHG70GyFPJiCXl0d9hX-3" target="MTHG70GyFPJiCXl0d9hX-5">
          <mxGeometry relative="1" as="geometry" />
        </mxCell>
        <mxCell id="MTHG70GyFPJiCXl0d9hX-3" value="판매 목록 불러오기" style="rounded=0;whiteSpace=wrap;html=1;" vertex="1" parent="1">
          <mxGeometry x="40" y="230" width="120" height="30" as="geometry" />
        </mxCell>
        <mxCell id="MTHG70GyFPJiCXl0d9hX-5" value="판매 목록 불러오기" style="rounded=0;whiteSpace=wrap;html=1;" vertex="1" parent="1">
          <mxGeometry x="40" y="280" width="120" height="30" as="geometry" />
        </mxCell>
      </root>
    </mxGraphModel>
  </diagram>
</mxfile>
